<svg height="512" viewBox="0 0 60 60" width="512" xmlns="http://www.w3.org/2000/svg"><g id="Page-1" fill="none" fill-rule="evenodd"><g id="088---Move-File" fill-rule="nonzero"><g id="Icons" transform="translate(1 1)"><path id="Shape" d="m44 14v-10c0-2.209139-1.790861-4-4-4h-35l-5 23v31c0 2.209139 1.790861 4 4 4h36c2.209139 0 4-1.790861 4-4z" fill="#02a9f4"/><path id="Shape" d="m40 0h-3c2.209139 0 4 1.790861 4 4v50c0 2.209139-1.790861 4-4 4h3c2.209139 0 4-1.790861 4-4v-50c0-2.209139-1.790861-4-4-4z" fill="#0377bc"/><path id="Shape" d="m5 0 7.341 6.007c.910431.74520829 1.4466149 1.85344064 1.4658808 3.02981165.0192658 1.17637105-.4803406 2.30156685-1.3658808 3.07618835l-12.441 10.887z" fill="#3f51b5"/><path id="Shape" d="m4 28c-.55228475 0-1-.4477153-1-1v-2c0-.5522847.44771525-1 1-1s1 .4477153 1 1v2c0 .5522847-.44771525 1-1 1z" fill="#f5f5f5"/><path id="Shape" d="m4 50c-.55228475 0-1-.4477153-1-1v-18c0-.5522847.44771525-1 1-1s1 .4477153 1 1v18c0 .5522847-.44771525 1-1 1z" fill="#f5f5f5"/><path id="Shape" d="m57.75 36.046-14.365-12.83c-.2433723-.2200612-.593635-.2758759-.8933508-.1423564-.2997158.1335196-.4924804.4312462-.4916492.7593564v6.167c-18.362 0-21-13-21-13 0 28 21 27 21 27v5.166c-.0003356.3278713.1923716.6252136.4917879.758816.2994163.1336023.6494218.0784235.8932121-.140816l14.365-12.536c.1598727-.1591412.2497501-.3754225.2497501-.601s-.0898774-.4418588-.2497501-.601z" fill="#e91e63"/><g fill="#ad1457"><path id="Shape" d="m39 30v-.128c-15.649-1.325-18.0000697-12.872-18.0000697-12.872-.0035326 2.0937251.1324355 4.1853618.4070697 6.261 2.913 3.328 8.187 6.739 17.593 6.739z"/><path id="Shape" d="m57.75 36.046-14.365-12.83c-.2433723-.2200612-.593635-.2758759-.8933508-.1423564-.2997158.1335196-.4924804.4312462-.4916492.7593564v.825l12.75 11.388c.1592594.1590611.2487471.3749133.2487471.6s-.0894877.4409389-.2487471.6l-12.75 11.129v.792c-.0008312.3281102.1919334.6258368.4916492.7593564.2997158.1335195.6499785.0777048.8933508-.1423564l14.365-12.536c.1598727-.1591412.2497501-.3754225.2497501-.601s-.0898774-.4418588-.2497501-.601z"/></g></g><g id="Layer_2" fill="#000"><path id="Shape" d="m5 60h36c2.7600532-.0033061 4.9966939-2.2399468 5-5 0-.5522847-.4477153-1-1-1s-1 .4477153-1 1c0 1.6568542-1.3431458 3-3 3h-36c-1.65685425 0-3-1.3431458-3-3v-30.546l12.1-10.589c1.106982-.9684242 1.7314278-2.3751201 1.7071522-3.8457204-.0242755-1.4706003-.6948099-2.85591959-1.8331522-3.7872796l-5.174-4.232h32.2c1.6568542 0 3 1.34314575 3 3v15c0 .5522847.4477153 1 1 1s1-.4477153 1-1v-15c-.0033061-2.76005315-2.2399468-4.99669388-5-5h-35c-.47056165-.00044595-.87777054.32723646-.978.787l-5 23c-.01429372.0701078-.02166247.1414507-.022.213v31c.00330612 2.7600532 2.23994685 4.9966939 5 5zm1.63-57.192 6.078 4.972c.6827753.55875825 1.0849797 1.38973545 1.0996211 2.2718797.0146414.8821443-.3597647 1.7260113-1.0236211 2.3071203l-10.164 8.894z"/><path id="Shape" d="m26 8h2c.5522847 0 1-.44771525 1-1s-.4477153-1-1-1h-2c-.5522847 0-1 .44771525-1 1s.4477153 1 1 1z"/><path id="Shape" d="m32 8h7c.5522847 0 1-.44771525 1-1s-.4477153-1-1-1h-7c-.5522847 0-1 .44771525-1 1s.4477153 1 1 1z"/><path id="Shape" d="m26 13h2c.5522847 0 1-.4477153 1-1s-.4477153-1-1-1h-2c-.5522847 0-1 .4477153-1 1s.4477153 1 1 1z"/><path id="Shape" d="m32 13h7c.5522847 0 1-.4477153 1-1s-.4477153-1-1-1h-7c-.5522847 0-1 .4477153-1 1s.4477153 1 1 1z"/><path id="Shape" d="m59.458 36.34c-.014-.014-.027-.027-.042-.04l-14.358-12.825c-.5366644-.4857183-1.3091922-.6094721-1.9707263-.3156974-.661534.2937748-1.0877471.9498668-1.0872737 1.6736974v5.153c-16.371-.442-18.918-11.7-19.02-12.185-.1021973-.5032898-.5690146-.8473466-1.0800012-.7959898-.5109867.0513567-.9000001.4814288-.8999988.9949898 0 9.939 2.589 17.448 7.693 22.315 3.6266175 3.4028678 8.3406768 5.412197 13.307 5.672v4.179c-.0054558.7269363.424061 1.3867623 1.091 1.676.2363692.1054436.4921792.1602844.751.161.4439766-.0000109.8719409-.1658471 1.2-.465l14.416-12.584c.7187468-.7231131.7187468-1.8908869 0-2.614zm-15.458 13.454v-4.794c0-.5522847-.4477153-1-1-1h-.044c-4.7915176-.0539448-9.3908953-1.8919131-12.9-5.155-3.8-3.634-6.076-8.941-6.8-15.815 2.661 3.981 8.287 8.97 19.744 8.97.5522847 0 1-.4477153 1-1v-5.788l13.92 12.434z"/></g></g></g></svg>